# xmcd
#
# Track frame offsets:
#	150
#	15344
#	29267
#	42428
#	51828
#	63696
#	81228
#	89552
#	96477
#	109428
#
# Disc length: 1665 seconds
#
# Revision: 1
# Processed by: cddbd v1.5.1PL2 Copyright (c) Steve Scherf et al.
# Submitted via: audiograbber 1.83.01
#
DISCID=88067f0a
DTITLE=Festival Country - Volume 1
DYEAR=1900
DGENRE=
TTITLE0=Ou c'que je vais coucher
TTITLE1=Je suis fou de joie
TTITLE2=Les 7 anges
TTITLE3=Le divorce
TTITLE4=Johnny B good
TTITLE5=Je t'aime
TTITLE6=Un p'tit bécot
TTITLE7=Ote ta gomme Joséphine
TTITLE8=Mêle-toi de tes affaires
TTITLE9=Sweet memories
EXTD=
EXTT0=
EXTT1=
EXTT2=
EXTT3=
EXTT4=
EXTT5=
EXTT6=
EXTT7=
EXTT8=
EXTT9=
PLAYORDER=
